<svg width="19" height="19" viewBox="0 0 19 19" fill="none" xmlns="http://www.w3.org/2000/svg">
<path d="M16.25 6.5C17.0784 6.5 17.75 7.17157 17.75 8V11C17.75 11.8284 17.0784 12.5 16.25 12.5H15.4536C15.0845 15.4597 12.5597 17.75 9.5 17.75V16.25C11.9853 16.25 14 14.2353 14 11.75V7.25C14 4.76472 11.9853 2.75 9.5 2.75C7.01472 2.75 5 4.76472 5 7.25V12.5H2.75C1.92157 12.5 1.25 11.8284 1.25 11V8C1.25 7.17157 1.92157 6.5 2.75 6.5H3.54642C3.91549 3.54027 6.44029 1.25 9.5 1.25C12.5597 1.25 15.0845 3.54027 15.4536 6.5H16.25ZM6.31958 12.3387L7.11469 11.0665C7.80621 11.4997 8.62385 11.75 9.5 11.75C10.3762 11.75 11.1938 11.4997 11.8853 11.0665L12.6805 12.3387C11.7584 12.9162 10.6682 13.25 9.5 13.25C8.3318 13.25 7.24161 12.9162 6.31958 12.3387Z" fill="white"/>
</svg>
